<?xml version="1.0" standalone="no"?>
<!DOCTYPE svg PUBLIC "-//W3C//DTD SVG 1.1//EN" 
    "http://www.w3.org/Graphics/SVG/1.1/DTD/svg11.dtd">

<svg width="500px" height="400px" viewBox="-5 -5 360 280"
	preserveAspectRatio="xMidYMid" version="1.1"
	xmlns="http://www.w3.org/2000/svg"
	xmlns:xlink="http://www.w3.org/1999/xlink">

	<title>Delannoy paths 3x3</title>
	<desc>Robert Dickau, 2006-2007</desc>

	<defs>
		<g id="backgrid" stroke="lightblue" stroke-width="1"
			stroke-linecap="square">
			<line x1="0" y1="-1" x2="0" y2="31" />
			<line x1="10" y1="-1" x2="10" y2="31" />
			<line x1="20" y1="-1" x2="20" y2="31" />
			<line x1="30" y1="-1" x2="30" y2="31" />

			<line x1="-1" y1="0" x2="31" y2="0" />
			<line x1="-1" y1="10" x2="31" y2="10" />
			<line x1="-1" y1="20" x2="31" y2="20" />
			<line x1="-1" y1="30" x2="31" y2="30" />
		</g>
	</defs>

	<g stroke-linejoin="round" stroke-linecap="round" stroke="red"
		stroke-width="2" fill="none">

		<!-- row 1 -->

		<g transform="translate(0 0)">
			<use xlink:href="#backgrid" />
			<polyline points="0,30 30,0" />
		</g>

		<g transform="translate(40 0)">
			<use xlink:href="#backgrid" />
			<polyline points="0,30 0,20 20,0 30,0" />
		</g>

		<g transform="translate(80 0)">
			<use xlink:href="#backgrid" />
			<polyline points="0,30 0,20 10,10 20,10 30,0" />
		</g>

		<g transform="translate(120 0)">
			<use xlink:href="#backgrid" />
			<polyline points="0,30 0,20 10,20 30,0" />
		</g>

		<g transform="translate(160 0)">
			<use xlink:href="#backgrid" />
			<polyline points="0,30 10,20 10,10 20,0 30,0" />
		</g>

		<g transform="translate(200 0)">
			<use xlink:href="#backgrid" />
			<polyline points="0,30 10,20 10,10 20,10 30,0" />
		</g>

		<g transform="translate(240 0)">
			<use xlink:href="#backgrid" />
			<polyline points="0,30 20,10 20,0 30,0" />
		</g>

		<g transform="translate(280 0)">
			<use xlink:href="#backgrid" />
			<polyline points="0,30 20,10 30,10 30,0" />
		</g>

		<g transform="translate(320 0)">
			<use xlink:href="#backgrid" />
			<polyline points="0,30 10,20 20,20 20,10 30,0" />
		</g>

		<!-- row 2 -->

		<g transform="translate(0 40)">
			<use xlink:href="#backgrid" />
			<polyline points="0,30 10,20 20,20 30,10 30,0" />
		</g>

		<g transform="translate(40 40)">
			<use xlink:href="#backgrid" />
			<polyline points="0,30 10,30 10,20 30,0" />
		</g>

		<g transform="translate(80 40)">
			<use xlink:href="#backgrid" />
			<polyline points="0,30 10,30 20,20 20,10 30,0" />
		</g>

		<g transform="translate(120 40)">
			<use xlink:href="#backgrid" />
			<polyline points="0,30 10,30 30,10 30,0" />
		</g>

		<g transform="translate(160 40)">
			<use xlink:href="#backgrid" />
			<polyline points="0,30 0,10 10,0 30,0" />
		</g>

		<g transform="translate(200 40)">
			<use xlink:href="#backgrid" />
			<polyline points="0,30 0,10 10,10 20,0 30,0" />
		</g>

		<g transform="translate(240 40)">
			<use xlink:href="#backgrid" />
			<polyline points="0,30 0,10 20,10 30,0" />
		</g>

		<g transform="translate(280 40)">
			<use xlink:href="#backgrid" />
			<polyline points="0,30 0,20 10,10 10,0 30,0" />
		</g>

		<g transform="translate(320 40)">
			<use xlink:href="#backgrid" />
			<polyline points="0,30 0,20 10,10 20,10 20,0 30,0" />
		</g>

		<!-- row 3 -->

		<g transform="translate(0 80)">
			<use xlink:href="#backgrid" />
			<polyline points="0,30 0,20 10,10 30,10 30,0" />
		</g>

		<g transform="translate(40 80)">
			<use xlink:href="#backgrid" />
			<polyline points="0,30 0,20 10,20 10,10 20,0 30,0" />
		</g>

		<g transform="translate(80 80)">
			<use xlink:href="#backgrid" />
			<polyline points="0,30 0,20 10,20 10,10 20,10 30,0" />
		</g>

		<g transform="translate(120 80)">
			<use xlink:href="#backgrid" />
			<polyline points="0,30 0,20 10,20 20,10 20,0 30,0" />
		</g>

		<g transform="translate(160 80)">
			<use xlink:href="#backgrid" />
			<polyline points="0,30 0,20 10,20 20,10 30,10 30,0" />
		</g>

		<g transform="translate(200 80)">
			<use xlink:href="#backgrid" />
			<polyline points="0,30 0,20 20,20 20,10 30,0" />
		</g>

		<g transform="translate(240 80)">
			<use xlink:href="#backgrid" />
			<polyline points="0,30 0,20 20,20 30,10 30,0" />
		</g>

		<g transform="translate(280 80)">
			<use xlink:href="#backgrid" />
			<polyline points="0,30 10,20 10,0 30,0" />
		</g>

		<g transform="translate(320 80)">
			<use xlink:href="#backgrid" />
			<polyline points="0,30 10,20 10,10 20,10 20,0 30,0" />
		</g>

		<!-- row 4 -->

		<g transform="translate(0 120)">
			<use xlink:href="#backgrid" />
			<polyline points="0,30 10,20 10,10 30,10 30,0" />
		</g>

		<g transform="translate(40 120)">
			<use xlink:href="#backgrid" />
			<polyline points="0,30 10,20 20,20 20,0 30,0" />
		</g>

		<g transform="translate(80 120)">
			<use xlink:href="#backgrid" />
			<polyline points="0,30 10,20 20,20 20,10 30,10 30,0" />
		</g>

		<g transform="translate(120 120)">
			<use xlink:href="#backgrid" />
			<polyline points="0,30 10,20 30,20 30,0" />
		</g>

		<g transform="translate(160 120)">
			<use xlink:href="#backgrid" />
			<polyline points="0,30 10,30 10,10 20,0 30,0" />
		</g>

		<g transform="translate(200 120)">
			<use xlink:href="#backgrid" />
			<polyline points="0,30 10,30 10,10 20,10 30,0" />
		</g>

		<g transform="translate(240 120)">
			<use xlink:href="#backgrid" />
			<polyline points="0,30 10,30 10,20 20,10 20,0 30,0" />
		</g>

		<g transform="translate(280 120)">
			<use xlink:href="#backgrid" />
			<polyline points="0,30 10,30 10,20 20,10 30,10 30,0" />
		</g>

		<g transform="translate(320 120)">
			<use xlink:href="#backgrid" />
			<polyline points="0,30 10,30 10,20 20,20 20,10 30,0" />
		</g>

		<!-- row 5 -->

		<g transform="translate(0 160)">
			<use xlink:href="#backgrid" />
			<polyline points="0,30 10,30 10,20 20,20 30,10 30,0" />
		</g>

		<g transform="translate(40 160)">
			<use xlink:href="#backgrid" />
			<polyline points="0,30 10,30 20,20 20,0 30,0" />
		</g>

		<g transform="translate(80 160)">
			<use xlink:href="#backgrid" />
			<polyline points="0,30 10,30 20,20 20,10 30,10 30,0" />
		</g>

		<g transform="translate(120 160)">
			<use xlink:href="#backgrid" />
			<polyline points="0,30 10,30 20,20 30,20 30,0" />
		</g>

		<g transform="translate(160 160)">
			<use xlink:href="#backgrid" />
			<polyline points="0,30 20,30 20,10 30,0" />
		</g>

		<g transform="translate(200 160)">
			<use xlink:href="#backgrid" />
			<polyline points="0,30 20,30 20,20 30,10 30,0" />
		</g>

		<g transform="translate(240 160)">
			<use xlink:href="#backgrid" />
			<polyline points="0,30 20,30 30,20 30,0" />
		</g>

		<g transform="translate(280 160)">
			<use xlink:href="#backgrid" />
			<polyline points="0,30 0,0 30,0" />
		</g>

		<g transform="translate(320 160)">
			<use xlink:href="#backgrid" />
			<polyline points="0,30 0,10 10,10 10,0 30,0" />
		</g>

		<!-- row 6 -->

		<g transform="translate(0 200)">
			<use xlink:href="#backgrid" />
			<polyline points="0,30 0,10 20,10 20,0 30,0" />
		</g>

		<g transform="translate(40 200)">
			<use xlink:href="#backgrid" />
			<polyline points="0,30 0,10 30,10 30,0" />
		</g>

		<g transform="translate(80 200)">
			<use xlink:href="#backgrid" />
			<polyline points="0,30 0,20 10,20 10,0 30,0" />
		</g>

		<g transform="translate(120 200)">
			<use xlink:href="#backgrid" />
			<polyline points="0,30 0,20 10,20 10,10 20,10 20,0 30,0" />
		</g>

		<g transform="translate(160 200)">
			<use xlink:href="#backgrid" />
			<polyline points="0,30 0,20 10,20 10,10 30,10 30,0" />
		</g>

		<g transform="translate(200 200)">
			<use xlink:href="#backgrid" />
			<polyline points="0,30 0,20 20,20 20,0 30,0" />
		</g>

		<g transform="translate(240 200)">
			<use xlink:href="#backgrid" />
			<polyline points="0,30 0,20 20,20 20,10 30,10 30,0" />
		</g>

		<g transform="translate(280 200)">
			<use xlink:href="#backgrid" />
			<polyline points="0,30 0,20 30,20 30,0" />
		</g>

		<g transform="translate(320 200)">
			<use xlink:href="#backgrid" />
			<polyline points="0,30 10,30 10,0 30,0" />
		</g>

		<!-- row 7 -->

		<g transform="translate(0 240)">
			<use xlink:href="#backgrid" />
			<polyline points="0,30 10,30 10,10 20,10 20,0 30,0" />
		</g>

		<g transform="translate(40 240)">
			<use xlink:href="#backgrid" />
			<polyline points="0,30 10,30 10,10 30,10 30,0" />
		</g>

		<g transform="translate(80 240)">
			<use xlink:href="#backgrid" />
			<polyline points="0,30 10,30 10,20 20,20 20,0 30,0" />
		</g>

		<g transform="translate(120 240)">
			<use xlink:href="#backgrid" />
			<polyline points="0,30 10,30 10,20 20,20 20,10 30,10 30,0" />
		</g>

		<g transform="translate(160 240)">
			<use xlink:href="#backgrid" />
			<polyline points="0,30 10,30 10,20 30,20 30,0" />
		</g>

		<g transform="translate(200 240)">
			<use xlink:href="#backgrid" />
			<polyline points="0,30 20,30 20,0 30,0" />
		</g>

		<g transform="translate(240 240)">
			<use xlink:href="#backgrid" />
			<polyline points="0,30 20,30 20,10 30,10 30,0" />
		</g>

		<g transform="translate(280 240)">
			<use xlink:href="#backgrid" />
			<polyline points="0,30 20,30 20,20 30,20 30,0" />
		</g>

		<g transform="translate(320 240)">
			<use xlink:href="#backgrid" />
			<polyline points="0,30 30,30 30,0" />
		</g>

	</g>

</svg>